<svg width="28" height="28" fill="none" xmlns="http://www.w3.org/2000/svg"><path d="M27.616 7.885L14.394.107a.78.78 0 00-.788 0L.384 7.885a.777.777 0 00-.384.67v18.667c0 .43.348.778.778.778h7.048a.778.778 0 00.775-.724c.103-1.758.58-3.474 1.402-5.031a5.978 5.978 0 002.918 1.001c.178.014.354.021.528.021a5.873 5.873 0 004.264-1.769 5.688 5.688 0 001.103-3.99c-.022-1.394-.043-2.838 1.957-5.237a.778.778 0 00-.512-1.272c-4.83-.541-10.327 1.818-12.002 5.142a4.394 4.394 0 00.589 4.965C7.911 22.746 7.191 24.12 7 26H2V9l12-7 12 7v17H11.667c-.43 0-.838.5-.838 1s.408 1 .838 1h15.555c.43 0 .778-.348.778-.778V8.556a.777.777 0 00-.384-.67zm-17.97 8.956c1.108-2.195 4.92-4.324 9.03-4.366a7.766 7.766 0 00-1.416 5.057 4.212 4.212 0 01-.722 2.953 4.401 4.401 0 01-3.497 1.21 4.493 4.493 0 01-2.212-.751 7.986 7.986 0 012.747-2.3.778.778 0 10-.696-1.392 9.47 9.47 0 00-3.075 2.503 2.791 2.791 0 01-.158-2.914z" fill="#78C081"/></svg>