<svg width="17" height="17" fill="none" xmlns="http://www.w3.org/2000/svg"><path d="M.171 7.038a.177.177 0 00.185-.169c.05-1.123.688-2.122 1.552-2.429.764-.27 1.59.037 2.329.868.504.567 1.12 1.644 1.999 2.226a.177.177 0 10.196-.296c-.815-.539-1.415-1.586-1.93-2.166-1.134-1.275-2.186-1.153-2.713-.966C.793 4.46.06 5.59.002 6.853a.177.177 0 00.17.185zm6.214 2.79c-1.608.859-3.472.76-4.748-.249a.177.177 0 10-.22.278c.761.602 1.711.907 2.7.907a5.18 5.18 0 002.435-.624.177.177 0 00-.167-.312zM.412 8.251a.177.177 0 00-.086.236c.103.22.231.436.371.624A.177.177 0 00.981 8.9a3.295 3.295 0 01-.334-.563.177.177 0 00-.235-.086zm8.501 8.196c1.886-1.212 2.41-3.798 1.219-6.015a.177.177 0 10-.312.168c1.103 2.052.63 4.438-1.099 5.548-1.445.927-3.235.466-4-.545-.656-.865-.436-1.925.589-2.836.553-.492 1.576-1.08 2.169-1.917a.177.177 0 00-.29-.205c-.551.778-1.556 1.36-2.114 1.857-1.387 1.233-1.239 2.521-.637 3.315.902 1.192 2.92 1.627 4.475.63zm6.691-4.165c-.866.656-1.927.436-2.838-.589-.5-.564-1.11-1.628-1.977-2.212a.177.177 0 10-.198.293c.803.542 1.403 1.582 1.91 2.154 1.148 1.292 2.427 1.31 3.317.637 1.136-.862 1.66-2.865.628-4.474-1.22-1.903-3.905-2.414-6.114-1.164a.177.177 0 10.174.308c2.045-1.157 4.523-.697 5.642 1.047.926 1.445.466 3.234-.544 4zM8.091.554C6.198 1.77 5.683 4.45 6.918 6.656a.177.177 0 10.31-.174C6.082 4.44 6.546 1.967 8.282.852c1.445-.925 3.235-.466 4 .545.656.865.436 1.926-.589 2.837-.567.504-1.698 1.153-2.265 2.06a.177.177 0 10.3.188c.527-.842 1.611-1.458 2.2-1.983 1.387-1.234 1.239-2.522.637-3.316C11.705.046 9.7-.477 8.09.554z" fill="#78C081"/><path d="M8.474 10.497c1.059 0 1.92-.862 1.92-1.92 0-1.06-.861-1.921-1.92-1.921s-1.92.861-1.92 1.92c0 1.06.861 1.921 1.92 1.921zm0-3.487a1.568 1.568 0 010 3.132 1.568 1.568 0 01-1.566-1.565c0-.864.702-1.567 1.566-1.567z" fill="#78C081"/></svg>