<svg width="17" height="17" fill="none" xmlns="http://www.w3.org/2000/svg"><path d="M7.672 9.123c-2.367 2.189-5.62 1.792-6.966-.309-1.735-2.707 1.115-6.488 3.66-3.624.742.831 1.723 2.75 3.31 2.54l-.004 1.393z" fill="#D7FFDB"/><path d="M9.122 9.328c2.187 2.368 1.79 5.623-.308 6.97-2.707 1.735-6.487-1.118-3.625-3.664.833-.74 2.749-1.72 2.54-3.308l1.393.002z" fill="#9DFF94"/><path d="M12.632 11.81c-.739-.832-1.72-2.749-3.307-2.539l.003-1.393c2.368-2.189 5.62-1.792 6.967.309 1.735 2.705-1.117 6.488-3.663 3.624z" fill="#D7FFDB"/><path d="M7.877 7.673c-2.189-2.368-1.79-5.623.308-6.97 2.707-1.735 6.487 1.118 3.624 3.664-.832.74-2.747 1.72-2.54 3.308l-1.392-.002z" fill="#9DFF94"/><path d="M8.472 10.32a1.743 1.743 0 100-3.487 1.743 1.743 0 000 3.487z" fill="#fff"/><path d="M.17 7.038a.177.177 0 00.184-.169c.05-1.123.688-2.122 1.552-2.429.764-.27 1.59.037 2.329.868.504.567 1.12 1.644 2 2.226a.177.177 0 10.195-.296C5.615 6.7 5.015 5.652 4.5 5.073c-1.134-1.276-2.186-1.154-2.713-.967C.791 4.46.057 5.59 0 6.853a.177.177 0 00.17.185zm6.213 2.79c-1.608.859-3.472.76-4.748-.249a.177.177 0 10-.22.278c.761.602 1.711.907 2.7.907a5.18 5.18 0 002.435-.624.177.177 0 00-.167-.312zM.41 8.251a.177.177 0 00-.086.236c.103.22.231.436.371.623a.177.177 0 00.284-.21 3.295 3.295 0 01-.334-.563.177.177 0 00-.235-.086zm8.5 8.196c1.887-1.212 2.411-3.798 1.22-6.015a.177.177 0 10-.312.167c1.103 2.053.63 4.439-1.099 5.55-1.445.925-3.235.465-4-.546-.656-.865-.435-1.925.59-2.836.552-.492 1.575-1.08 2.168-1.917a.177.177 0 00-.29-.205c-.551.778-1.556 1.36-2.114 1.857-1.387 1.233-1.239 2.52-.637 3.315.902 1.192 2.92 1.627 4.475.63zm6.692-4.165c-.866.656-1.927.436-2.838-.59-.5-.563-1.11-1.627-1.977-2.212a.177.177 0 10-.198.294c.803.542 1.403 1.582 1.91 2.154 1.148 1.292 2.427 1.31 3.317.636 1.136-.86 1.66-2.864.628-4.473-1.22-1.903-3.905-2.415-6.114-1.164a.177.177 0 10.174.308c2.045-1.157 4.523-.697 5.642 1.047.926 1.444.466 3.234-.544 4zM8.09.554C6.195 1.77 5.68 4.45 6.915 6.656a.177.177 0 10.31-.174C6.08 4.44 6.544 1.967 8.28.852c1.445-.925 3.236-.466 4 .545.656.865.436 1.926-.589 2.837-.566.504-1.698 1.153-2.265 2.06a.177.177 0 10.3.188c.527-.842 1.611-1.458 2.2-1.983 1.387-1.234 1.239-2.522.637-3.316C11.704.046 9.7-.477 8.09.554z" fill="#78C081"/><path d="M8.472 10.497c1.059 0 1.92-.862 1.92-1.92 0-1.06-.861-1.921-1.92-1.921s-1.92.861-1.92 1.92c0 1.06.861 1.92 1.92 1.92zm0-3.487c.863 0 1.566.703 1.566 1.566 0 .864-.703 1.566-1.566 1.566a1.568 1.568 0 01-1.566-1.566c0-.863.703-1.566 1.566-1.566z" fill="#78C081"/></svg>