<svg width="1241" height="215" fill="none" xmlns="http://www.w3.org/2000/svg"><g opacity=".3" fill-rule="evenodd" clip-rule="evenodd" fill="#fff"><path d="M470.899 205.042s-215.605-8.679-447.9-65.102l447.9 65.102zm580.301-51.515s-220.741 27.575-365.043 17.042l365.043-17.042zm-440.978 12.382s-222.367 6.236-364.992-18.114l364.992 18.114zM1241 93.692s-220.74 27.575-365.043 17.042L1241 93.692z"/><path d="M1002.95 123.808s-181.752 26.974-366.431 14.583C451.841 126.001 116 19.761 116 19.761s287.447 93.362 521.85 110.956c234.403 17.593 365.1-6.909 365.1-6.909zm191.82 38.356s-187.54 20.418-417.239 20.198l193.815-2.312S831.117 193.924 720 191.184c0 0 292.02-.382 468.31-12.718l6.46-16.302z"/><path d="M486.979 77.845s301.457-11.167 421.619 8.965l-421.619-8.965zM-48 49.893s301.457-11.166 421.619 8.965l-421.62-8.965z" style="mix-blend-mode:screen"/><path d="M354.797 16.883S646.336-3.691 834.96 24.807l-480.163-7.924zm280.658 41.703s240.888-36.124 482.185 4.854l-482.185-4.854z"/></g></svg>