<svg width="42" height="58" fill="none" xmlns="http://www.w3.org/2000/svg"><path d="M29.284 4.505h-3.75c-.918-4.95-8.11-4.833-9.073 0h-3.745a2.096 2.096 0 00-2.102 2.085v.112H4.11C1.844 6.702 0 8.53 0 10.777v43.024c0 2.247 1.844 4.075 4.11 4.075h33.78c2.266 0 4.11-1.828 4.11-4.075V10.777c0-2.247-1.844-4.075-4.11-4.075h-6.504V6.59c0-1.15-.943-2.085-2.102-2.085zM12.716 6.288h4.556c.497 0 .9-.41.9-.903 0-3.566 5.645-3.798 5.645.011 0 .493.403.892.9.892h4.567c.167 0 .304.135.304.302v5.462a.303.303 0 01-.305.302H12.717a.303.303 0 01-.304-.302V6.59c0-.167.136-.302.303-.302zm0 7.85h16.568a2.095 2.095 0 002.102-2.084v-.002l4.552-.03c.384 0 .696.31.696.691v39.152c0 .38-.312.69-.696.69H6.062a.694.694 0 01-.696-.69V12.713c0-.38.312-.69.696-.69h4.552v.031c0 1.15.943 2.085 2.102 2.085zM37.89 8.486a2.305 2.305 0 012.312 2.292v43.024a2.305 2.305 0 01-2.312 2.292H4.11a2.305 2.305 0 01-2.312-2.292V10.777A2.305 2.305 0 014.11 8.485h6.504v1.755H6.062c-1.375 0-2.494 1.11-2.494 2.473v39.152c0 1.364 1.119 2.473 2.494 2.473h29.876c1.375 0 2.494-1.11 2.494-2.473V12.713c0-1.364-1.12-2.473-2.494-2.473h-4.552V8.485h6.504z" fill="#5CCD6A"/><path d="M21.638 5.01c.333-.35.362-.866 0-1.266-.333-.33-.935-.33-1.276 0-.352.386-.341.91 0 1.266a.92.92 0 001.276 0z" fill="#5CCD6A"/><path d="M22.002 20.798h9.486c.497 0 .9-.399.9-.891a.895.895 0 00-.9-.892h-9.486c-.497 0-.9.4-.9.892s.403.891.9.891zm0 3.85h5.615c.497 0 .9-.4.9-.892a.895.895 0 00-.9-.891h-5.615c-.497 0-.9.399-.9.891s.403.892.9.892z" fill="#C3FF17"/><path d="M10.5 24.11a2.245 2.245 0 002.243 2.244h3.514A2.245 2.245 0 0018.5 24.11v-3.517a2.245 2.245 0 00-2.243-2.244h-3.514a2.245 2.245 0 00-2.243 2.244v3.517z" fill="#C3FF17" stroke="#5CCD6A"/><path d="M22.002 31.768h9.486c.497 0 .9-.4.9-.892a.895.895 0 00-.9-.891h-9.486c-.497 0-.9.4-.9.892s.403.891.9.891zm0 3.849h5.615c.497 0 .9-.399.9-.891a.895.895 0 00-.9-.892h-5.615c-.497 0-.9.4-.9.892s.403.891.9.891z" fill="#C3FF17"/><path d="M18.5 31.6v0a2.245 2.245 0 00-2.243-2.244h-3.514a2.245 2.245 0 00-2.243 2.245v3.517a2.245 2.245 0 002.243 2.243h3.514a2.245 2.245 0 002.243-2.243V31.6z" fill="#C3FF17" stroke="#5CCD6A"/><path d="M22.002 42.738h9.486c.497 0 .9-.4.9-.892a.895.895 0 00-.9-.891h-9.486c-.497 0-.9.399-.9.891 0 .493.403.892.9.892zm0 3.849h5.615c.497 0 .9-.399.9-.891a.895.895 0 00-.9-.892h-5.615c-.497 0-.9.4-.9.892s.403.891.9.891z" fill="#C3FF17"/><path d="M18.5 42.608v0a2.245 2.245 0 00-2.243-2.244h-3.514a2.245 2.245 0 00-2.243 2.244v3.518a2.245 2.245 0 002.243 2.243h3.514a2.245 2.245 0 002.243-2.243v-3.518z" fill="#C3FF17" stroke="#5CCD6A"/></svg>