<svg width="17" height="17" viewBox="0 0 17 17" fill="none" xmlns="http://www.w3.org/2000/svg">
<path d="M7.67232 9.12258C5.30455 11.3117 2.05229 10.9146 0.706182 8.81422C-1.02889 6.10686 1.82146 2.32593 4.36679 5.18987C5.10764 6.02127 6.08896 7.93921 7.67555 7.72931L7.67232 9.12258Z" fill="#D7FFDB"/>
<path d="M9.12242 9.32788C11.3094 11.6962 10.9124 14.9508 8.81413 16.2973C6.10741 18.0328 2.32738 15.1801 5.18904 12.6342C6.02187 11.8948 7.93773 10.9132 7.72951 9.32625L9.12242 9.32788Z" fill="#9DFF94"/>
<path d="M12.6323 11.8108C11.8931 10.9778 10.9118 9.06149 9.3252 9.27139L9.32842 7.87816C11.6962 5.68901 14.9485 6.08615 16.2946 8.18651C18.0296 10.8922 15.1777 14.6748 12.6323 11.8108Z" fill="#D7FFDB"/>
<path d="M7.87689 7.67305C5.68827 5.30471 6.08695 2.05005 8.18518 0.703652C10.8919 -1.03184 14.6719 1.82083 11.8087 4.36676C10.9774 5.10616 9.06161 6.08771 9.26983 7.67468L7.87689 7.67305Z" fill="#9DFF94"/>
<path d="M8.47247 10.3198C9.43509 10.3198 10.2155 9.53922 10.2155 8.57637C10.2155 7.61352 9.43509 6.83298 8.47247 6.83298C7.50985 6.83298 6.72949 7.61352 6.72949 8.57637C6.72949 9.53922 7.50985 10.3198 8.47247 10.3198Z" fill="white"/>
<path d="M0.169192 7.03839C0.267275 7.04211 0.349832 6.96709 0.354156 6.86923C0.404172 5.74578 1.04222 4.74692 1.90572 4.44037C2.66957 4.16928 3.49656 4.4775 4.23479 5.30815C4.73924 5.87466 5.35559 6.95238 6.23409 7.53367C6.31569 7.5876 6.42564 7.5653 6.47959 7.48365C6.53358 7.40206 6.51125 7.29208 6.42958 7.23808C5.61539 6.69922 5.01498 5.65175 4.49947 5.07251C3.36558 3.79685 2.314 3.91939 1.78718 4.10638C0.791328 4.46002 0.0563989 5.5896 0.000179474 6.85349C-0.00418054 6.95124 0.0714286 7.03407 0.169192 7.03839Z" fill="#78C081"/>
<path d="M6.38293 9.82753C4.7748 10.6865 2.91133 10.5886 1.63519 9.57908C1.55838 9.51808 1.44697 9.53166 1.38639 9.60816C1.32567 9.68493 1.33864 9.79639 1.41545 9.85706C2.17619 10.459 3.12635 10.7642 4.11509 10.7642C4.92839 10.7642 5.76785 10.5577 6.54968 10.1403C6.63599 10.0942 6.66871 9.98686 6.62252 9.90051C6.57651 9.81412 6.46875 9.78132 6.38293 9.82753Z" fill="#78C081"/>
<path d="M0.409914 8.25122C0.321153 8.29264 0.282941 8.39805 0.324273 8.48666C0.427212 8.7069 0.555425 8.9226 0.695016 9.11049C0.753185 9.18875 0.864064 9.20555 0.942935 9.14705C1.02149 9.08877 1.03776 8.97784 0.979446 8.89932C0.853856 8.73028 0.738262 8.53573 0.645354 8.33668C0.604058 8.24828 0.498496 8.21005 0.409914 8.25122Z" fill="#78C081"/>
<path d="M8.91064 16.4467C10.7973 15.2348 11.3213 12.6488 10.1297 10.4315C10.0833 10.3452 9.9757 10.313 9.8897 10.3593C9.80353 10.4057 9.7712 10.5132 9.81756 10.5994C10.9209 12.652 10.4487 15.0376 8.71948 16.1484C7.27433 17.0744 5.48367 16.6143 4.71829 15.6033C4.06312 14.738 4.28353 13.6778 5.30806 12.7672C5.86115 12.2745 6.8837 11.6862 7.47655 10.8501C7.53313 10.7702 7.51445 10.6596 7.43451 10.6029C7.35493 10.5463 7.24402 10.5652 7.18762 10.645C6.63581 11.4233 5.63134 12.0046 5.07259 12.5023C3.68575 13.7349 3.83434 15.0229 4.43574 15.8173C5.33816 17.009 7.35511 17.4437 8.91064 16.4467Z" fill="#78C081"/>
<path d="M15.6017 12.2819C14.7358 12.9381 13.6753 12.7177 12.764 11.6929C12.264 11.1287 11.6533 10.0647 10.7872 9.48043C10.7057 9.42576 10.5961 9.44703 10.5412 9.5283C10.4866 9.60945 10.508 9.71962 10.589 9.77429C11.3917 10.3157 11.992 11.3563 12.4991 11.9283C13.6471 13.2196 14.9263 13.2385 15.8157 12.5645C16.9519 11.7032 17.4758 9.70015 16.4443 8.0911C15.2242 6.18805 12.5386 5.67642 10.3298 6.92673C10.2445 6.97492 10.2145 7.08298 10.2628 7.16822C10.3109 7.25335 10.4192 7.28356 10.5042 7.23509C12.5492 6.07799 15.0274 6.53753 16.146 8.28231C17.0716 9.72639 16.612 11.5163 15.6017 12.2819Z" fill="#78C081"/>
<path d="M8.08949 0.554373C6.19608 1.76994 5.68067 4.4499 6.91633 6.6556C6.96397 6.74101 7.07187 6.77129 7.15751 6.7236C7.2428 6.67574 7.27325 6.56777 7.22533 6.48236C6.08119 4.43997 6.54488 1.96714 8.28066 0.852698C9.72581 -0.0731935 11.5165 0.386313 12.2817 1.39694C12.937 2.2621 12.7166 3.32265 11.692 4.23393C11.1255 4.73847 9.99397 5.3871 9.42735 6.29437C9.37545 6.37734 9.40069 6.48672 9.48357 6.53856C9.56662 6.59057 9.6758 6.56522 9.72769 6.48215C10.254 5.63954 11.3383 5.02357 11.9275 4.49872C13.3144 3.26528 13.1658 1.97711 12.5642 1.1829C11.7031 0.0461861 9.69951 -0.477637 8.08949 0.554373Z" fill="#78C081"/>
<path d="M8.47183 10.4969C9.53064 10.4969 10.3921 9.63531 10.3921 8.57632C10.3921 7.51725 9.53068 6.65561 8.47183 6.65561C7.4132 6.65561 6.55176 7.51722 6.55176 8.57632C6.55179 9.63531 7.4132 10.4969 8.47183 10.4969ZM8.47183 7.01006C9.33533 7.01006 10.0378 7.71272 10.0378 8.57635C10.0378 9.43998 9.33533 10.1425 8.47183 10.1425C7.60851 10.1425 6.90609 9.43995 6.90609 8.57635C6.90609 7.71276 7.60851 7.01006 8.47183 7.01006Z" fill="#78C081"/>
</svg>
