<svg width="20" height="20" fill="none" xmlns="http://www.w3.org/2000/svg"><path d="M18 20H2a2.002 2.002 0 01-2-2V2a2.002 2.002 0 012-2h16a2.002 2.002 0 012 2v16a2.002 2.002 0 01-2 2zm1.333-18c0-.736-.597-1.333-1.333-1.333H2C1.264.667.667 1.264.667 2v16c0 .736.597 1.333 1.333 1.333h16c.736 0 1.333-.597 1.333-1.333V2z" fill="#78C081"/><path d="M2.5 16.333a1.167 1.167 0 110 2.334 1.167 1.167 0 010-2.334zM2.5 18a.5.5 0 100-1 .5.5 0 000 1zm15 .667a1.167 1.167 0 110-2.334 1.167 1.167 0 010 2.334zm0-1.667a.5.5 0 100 1 .5.5 0 000-1zM2.5 3.667a1.167 1.167 0 110-2.334 1.167 1.167 0 010 2.334zM2.5 2a.5.5 0 100 1 .5.5 0 000-1zm15 1.667a1.167 1.167 0 110-2.334 1.167 1.167 0 010 2.334zM17.5 2a.5.5 0 100 1 .5.5 0 000-1zm.15 12.343l-.6 1a.67.67 0 01-.572.324H3.522a.67.67 0 01-.572-.324l-.6-1a.667.667 0 01.572-1.01h14.156a.667.667 0 01.572 1.01zM2.922 14l.6 1h12.956l.6-1H2.922zm14.728-2.657l-.6 1a.67.67 0 01-.572.324H3.522a.67.67 0 01-.572-.324l-.6-1a.667.667 0 01.572-1.01h14.156a.667.667 0 01.572 1.01zM2.922 11l.6 1h12.956l.6-1H2.922zM17.65 8.343l-.6 1a.67.67 0 01-.572.324H3.522a.67.67 0 01-.572-.324l-.6-1a.667.667 0 01.572-1.01h14.156a.667.667 0 01.572 1.01zM2.922 8l.6 1h12.956l.6-1H2.922zM17.05 6.343a.67.67 0 01-.572.324H3.522a.67.67 0 01-.572-.324l-.6-1a.667.667 0 01.572-1.01h14.156a.667.667 0 01.572 1.01l-.6 1zM2.921 5l.6 1h12.956l.6-1H2.922z" fill="#78C081"/></svg>