<svg width="275" height="160" fill="none" xmlns="http://www.w3.org/2000/svg"><path d="M274.772 159.647a24.338 24.338 0 00-2.319-12.676 24.388 24.388 0 00-8.471-9.724 24.449 24.449 0 00-24.866-1.302c-1.875-5.004-3.8-10.097-7.116-14.284-3.316-4.187-8.329-7.398-13.678-7.201v45.187h56.45z" fill="#D0FFD4"/><path d="M188.616 50.9H71.668l-21.85-30.97-22.904 31.846L0 51.344l29.005-39 130.399.541L188.616 50.9z" fill="#E0E0E0"/><path d="M130.133 51.344v108.569H13.353V51.343h13.382L49.82 19.93l21.918 30.94 58.395.473z" fill="#F5F5F5"/><path d="M86.314 112.844h27.318v47.069H86.314v-47.069zm-59.401-1.33h43.029v26.608h-43.03v-26.608z" fill="#E0E0E0"/><path d="M57.023 111.514h.987v26.854h-.987v-26.854zm-17.893 0h.987v26.854h-.987v-26.854z" fill="#EBEBEB"/><path d="M39.624 125.257h17.893v.985H39.624v-.985z" fill="#EBEBEB"/><path d="M26.913 58.27h43.029v26.607h-43.03V58.27z" fill="#E0E0E0"/><path d="M57.023 58.26h.987v26.853h-.987V58.26zm-17.893 0h.987v26.853h-.987V58.26z" fill="#EBEBEB"/><path d="M39.624 72.011h17.893v.986H39.624v-.986z" fill="#EBEBEB"/><path d="M89.166 58.506h27.14v25.652h-27.14V58.506zm40.957-7.162h47.4v108.559h-47.4V51.344z" fill="#E0E0E0"/><path d="M102.243 58.506h.987v25.652h-.987V58.506z" fill="#EBEBEB"/><path d="M89.166 71.47h27.14v.985h-27.14v-.985z" fill="#EBEBEB"/><path d="M49.878 46.398a5.748 5.748 0 01-5.754-5.743 5.748 5.748 0 015.754-5.743 5.748 5.748 0 015.754 5.743 5.748 5.748 0 01-5.754 5.743z" fill="#E0E0E0"/><path d="M90.923 33.612l-7.263-8.945V3.162h15.208V33.78l-7.945-.167z" fill="#F5F5F5"/><path d="M90.923 33.612V3.162h-7.264v21.505l7.264 8.945zM82.643 0h17.922v3.162H82.643V0z" fill="#EBEBEB"/><path d="M130.133 98.836h88.189v61.077h-88.189V98.836z" fill="#F5F5F5"/><path d="M163.105 98.836h55.217v61.077h-55.217V98.836z" fill="#E0E0E0"/><path d="M171.326 118.528h36.11v41.276h-36.11v-41.276z" fill="#F5F5F5"/><path d="M134.988 118.361h23.261v5.911h-23.261v-5.911zM188.616 50.9v3.143H71.738v-3.172l116.878.03z" fill="#EBEBEB"/><path d="M71.738 54.043l-21.86-30.627-.06-3.487L71.669 50.9l.07 3.143zM.563 51.344h26.172v2.03H.563v-2.03z" fill="#EBEBEB"/><path d="M95.63 105.624h9.662v3.664H95.63v-3.664z" fill="#E0E0E0"/></svg>