<svg width="20" height="20" fill="none" xmlns="http://www.w3.org/2000/svg"><g clip-path="url(#clip0_38_1497)" fill="#78C081"><path d="M1.875 19.688h16.25a1.565 1.565 0 001.563-1.563V1.875A1.564 1.564 0 0018.125.312H1.875A1.564 1.564 0 00.312 1.875v16.25a1.564 1.564 0 001.563 1.563zm-.938-1.563V1.875a.934.934 0 01.094-.402l3.125 3.125A.929.929 0 004.063 5v10c0 .14.032.277.093.402l-3.125 3.125a.922.922 0 01-.093-.402zM18.97 1.473a.922.922 0 01.093.402v16.25c0 .14-.032.276-.093.402l-3.125-3.125a.927.927 0 00.094-.402V5a.922.922 0 00-.094-.402l3.125-3.125zm-3.657 12.59h-4.374v-.626h4.374v.626zm0-1.25h-4.374v-.626h4.374v.626zm0-1.25h-4.374v-.626h4.374v.626zm0-1.25h-4.374v-.626h4.374v.626zm0-1.25h-4.374v-.626h4.374v.626zm0-1.25h-4.374v-.625h4.374v.625zm0-1.25h-4.374v-.625h4.374v.625zm-4.374 8.125h4.374V15a.313.313 0 01-.312.313h-4.063v-.626zM15.311 5v.313h-4.374v-.625H15a.313.313 0 01.313.312zm-5 10.313h-.624V4.687h.624v10.625zM4.689 5.937h4.375v.625H4.686v-.625zm0 1.25h4.375v.625H4.686v-.625zm0 1.25h4.375v.626H4.686v-.626zm0 1.25h4.375v.626H4.686v-.626zm0 1.25h4.375v.626H4.686v-.626zm0 1.25h4.375v.626H4.686v-.626zm0 1.25h4.375v.626H4.686v-.626zm0 1.563v-.313h4.375v.626H5A.312.312 0 014.687 15zm4.375-9.688H4.686V5A.312.312 0 015 4.687h4.063v.625zm-7.188 13.75a.922.922 0 01-.402-.093l3.125-3.125a.927.927 0 00.402.094h10a.93.93 0 00.402-.094l3.125 3.125a.93.93 0 01-.402.093H1.875zM18.125.938c.14.001.276.033.402.094l-3.125 3.125A.923.923 0 0015 4.063H5a.926.926 0 00-.402.093L1.473 1.031a.927.927 0 01.402-.093h16.25z"/><path d="M14.063 16.563H5.937a.938.938 0 000 1.875h8.125a.938.938 0 000-1.875zm0 1.25H5.937a.312.312 0 110-.625h8.125a.313.313 0 110 .625zM5.938 3.438h8.125a.937.937 0 000-1.876H5.937a.937.937 0 100 1.875zm0-1.25h8.125a.313.313 0 110 .624H5.937a.312.312 0 110-.624zM17.5 15a.938.938 0 00.938-.938V5.938a.938.938 0 00-1.875 0v8.125A.938.938 0 0017.5 15zm-.313-9.063a.312.312 0 11.625 0v8.125a.313.313 0 11-.625 0V5.938zM2.5 5a.937.937 0 00-.938.938v8.125a.937.937 0 001.875 0V5.937A.937.937 0 002.5 5zm.313 9.063a.313.313 0 11-.626 0V5.937a.312.312 0 11.626 0v8.125z"/></g><defs><clipPath id="clip0_38_1497"><path fill="#fff" transform="rotate(180 10 10)" d="M0 0h20v20H0z"/></clipPath></defs></svg>