<svg width="20" height="14" fill="none" xmlns="http://www.w3.org/2000/svg"><g clip-path="url(#clip0_167_79)" fill="#78C081"><path d="M18.324 8.645H1.676a.996.996 0 01-.714-.304 1.052 1.052 0 01-.295-.734V1.704c0-.275.107-.538.296-.733a.997.997 0 01.713-.304h16.648c.267 0 .524.11.713.304.19.195.296.458.296.733v5.903c0 .275-.106.54-.295.734a.996.996 0 01-.714.304zM1.676 1.405a.288.288 0 00-.206.087.304.304 0 00-.085.212v5.903c0 .08.03.156.085.212a.288.288 0 00.206.088h16.648a.288.288 0 00.206-.088.304.304 0 00.085-.212V1.704c0-.08-.03-.155-.085-.212a.288.288 0 00-.206-.087H1.676z"/><path d="M14.319 4.125H5.68a1.94 1.94 0 01-1.388-.592 2.05 2.05 0 01-.575-1.426V1.036c0-.098.038-.192.105-.261a.354.354 0 01.508 0 .375.375 0 01.105.26v1.072c0 .34.132.665.365.905.234.24.55.375.88.376h8.638c.33-.001.647-.136.88-.376a1.3 1.3 0 00.365-.905V1.036c0-.098.038-.192.105-.261a.354.354 0 01.508 0 .375.375 0 01.105.26v1.072c0 .535-.207 1.048-.576 1.427a1.94 1.94 0 01-1.387.591z"/><path d="M14.532 2.765H5.468a.354.354 0 01-.254-.108.374.374 0 010-.522.354.354 0 01.254-.108h9.064a.36.36 0 01.254.108.374.374 0 010 .522.354.354 0 01-.254.108zm1.268 5.88a.354.354 0 01-.254-.108.374.374 0 01-.105-.261v-.162c0-.265-.103-.52-.286-.708a.963.963 0 00-.689-.293h-8.93a.963.963 0 00-.69.293 1.017 1.017 0 00-.285.708v.162a.374.374 0 01-.105.26.354.354 0 01-.508 0 .374.374 0 01-.105-.26v-.162c0-.46.179-.903.496-1.229.318-.326.748-.51 1.197-.51h8.931c.45 0 .88.184 1.197.51.317.326.496.768.496 1.23v.161a.378.378 0 01-.105.261.36.36 0 01-.255.108zM3.278 13.176a.354.354 0 01-.254-.108.374.374 0 010-.522.354.354 0 01.254-.108 2.416 2.416 0 001.728-.737 2.55 2.55 0 00.717-1.776c0-.098.038-.192.106-.261a.354.354 0 01.507 0 .37.37 0 01.105.26c.001 1.793-1.418 3.252-3.163 3.252zm13.445 0c-1.745 0-3.164-1.46-3.164-3.251 0-.098.038-.192.105-.261a.354.354 0 01.508 0 .375.375 0 01.105.26c.001.667.259 1.306.717 1.777.459.47 1.08.736 1.729.737.095 0 .186.039.253.108a.374.374 0 010 .522.354.354 0 01-.253.108zM10 13.334a.354.354 0 01-.254-.109.374.374 0 01-.105-.26V9.767c0-.098.038-.192.105-.26a.354.354 0 01.508 0 .371.371 0 01.105.26v3.198a.374.374 0 01-.105.26.354.354 0 01-.254.109z"/></g><defs><clipPath id="clip0_167_79"><path fill="#fff" d="M0 0h20v14H0z"/></clipPath></defs></svg>