<svg width="22" height="20" fill="none" xmlns="http://www.w3.org/2000/svg"><path d="M20.587 17.578h-.276V3.39c0-.97-.79-1.76-1.76-1.76h-.456A1.241 1.241 0 0016.89.68H4.923a1.24 1.24 0 00-1.204.948h-.27c-.97 0-1.76.79-1.76 1.76v14.189h-.276A.414.414 0 001 17.99v.915c0 .228.185.413.413.413h19.174a.414.414 0 00.413-.413v-.915a.414.414 0 00-.413-.413zM2.27 3.388a1.18 1.18 0 011.178-1.177H5.29a.291.291 0 100-.582h-.955a.657.657 0 01.587-.366H16.89c.258 0 .48.15.588.366H6.568a.291.291 0 100 .582h11.983c.65 0 1.178.529 1.178 1.178v.094H2.27V3.39zm0 1.776h2c.403 0 .731.328.731.731v9.946a.732.732 0 01-.731.731h-2V5.164zm-.688 13.573v-.576h1.456a.291.291 0 000-.583H2.27v-.423h2c.724 0 1.314-.59 1.314-1.314V5.895c0-.724-.59-1.313-1.314-1.313h-2v-.516h8.438v2.987a.291.291 0 00.582 0V4.066h8.438v.516H17.73c-.724 0-1.314.589-1.314 1.313v9.946c0 .725.59 1.314 1.314 1.314h1.998v.423H11.29V8.234a.291.291 0 00-.582 0v9.344H4.294a.291.291 0 100 .583h16.123v.576H1.584zM19.729 5.164v11.409H17.73a.732.732 0 01-.73-.733V5.895c0-.403.328-.73.731-.73h1.998z" fill="#78C081"/><path d="M4.092 5.672H2.957a.291.291 0 100 .582h1.135a.291.291 0 100-.582zm0 1.09H2.957a.291.291 0 100 .582h1.135a.291.291 0 100-.582zm0 1.09H2.957a.291.291 0 100 .582h1.135a.291.291 0 100-.582zm0 1.09H2.957a.291.291 0 100 .582h1.135a.291.291 0 100-.582zm0 1.09H2.957a.291.291 0 100 .582h1.135a.291.291 0 000-.582zm0 1.09H2.957a.291.291 0 100 .583h1.135a.291.291 0 000-.583zm0 1.09H2.957a.291.291 0 100 .583h1.135a.291.291 0 000-.583zm0 1.09H2.957a.291.291 0 000 .583h1.135a.291.291 0 100-.583zm0 1.09H2.957a.291.291 0 000 .583h1.135a.291.291 0 100-.583zm0 1.09H2.957a.291.291 0 000 .583h1.135a.291.291 0 100-.583zm5.665-9.81H6.568a.291.291 0 100 .582h3.19a.291.291 0 100-.582zm0-1.09H6.568a.291.291 0 100 .582h3.19a.291.291 0 100-.582zm0 11.998H6.568a.291.291 0 000 .583h3.19a.291.291 0 100-.582zm0-9.818H6.568a.291.291 0 100 .582h3.19a.291.291 0 100-.582zm0 1.09H6.568a.291.291 0 100 .582h3.19a.291.291 0 100-.582zm0 1.09H6.568a.291.291 0 100 .582h3.19a.291.291 0 100-.582zm0 1.09H6.568a.291.291 0 100 .582h3.19a.291.291 0 000-.582zm0 1.09H6.568a.291.291 0 100 .583h3.19a.291.291 0 000-.583zm0 1.09H6.568a.291.291 0 100 .583h3.19a.291.291 0 000-.583zm0 1.09H6.568a.291.291 0 000 .583h3.19a.291.291 0 100-.583zm0 1.09H6.568a.291.291 0 000 .583h3.19a.291.291 0 100-.583zm0 1.09H6.568a.291.291 0 000 .583h3.19a.291.291 0 100-.583zm9.287-9.81h-1.136a.291.291 0 100 .582h1.136a.291.291 0 000-.582zm0 1.09h-1.136a.291.291 0 000 .582h1.136a.291.291 0 000-.582zm0 1.09h-1.136a.291.291 0 000 .582h1.136a.291.291 0 000-.582zm0 1.09h-1.136a.291.291 0 000 .582h1.136a.291.291 0 000-.582zm0 1.09h-1.136a.291.291 0 000 .582h1.136a.291.291 0 000-.582zm0 1.09h-1.136a.291.291 0 000 .583h1.136a.291.291 0 000-.583zm0 1.09h-1.136a.291.291 0 100 .583h1.136a.291.291 0 000-.583zm0 1.09h-1.136a.291.291 0 000 .583h1.136a.291.291 0 100-.583zm0 1.09h-1.136a.291.291 0 000 .583h1.136a.291.291 0 000-.583zm0 1.09h-1.136a.291.291 0 000 .583h1.136a.291.291 0 000-.583zm-3.612-9.81h-3.228a.291.291 0 000 .582h3.228a.291.291 0 100-.582zm0-1.09h-3.228a.291.291 0 000 .582h3.228a.291.291 0 100-.582zm0 11.998h-3.228a.291.291 0 000 .583h3.228a.291.291 0 100-.582zm0-9.818h-3.228a.291.291 0 000 .582h3.228a.291.291 0 100-.582zm0 1.09h-3.228a.291.291 0 000 .582h3.228a.291.291 0 100-.582zm0 1.09h-3.228a.291.291 0 000 .582h3.228a.291.291 0 100-.582zm0 1.09h-3.228a.291.291 0 000 .582h3.228a.291.291 0 100-.582zm0 1.09h-3.228a.291.291 0 000 .583h3.228a.291.291 0 100-.583zm0 1.09h-3.228a.291.291 0 100 .583h3.228a.291.291 0 100-.583zm0 1.09h-3.228a.291.291 0 000 .583h3.228a.291.291 0 100-.583zm0 1.09h-3.228a.291.291 0 000 .583h3.228a.291.291 0 100-.583zm0 1.09h-3.228a.291.291 0 000 .583h3.228a.291.291 0 100-.583z" fill="#78C081"/></svg>