<svg width="209" height="236" fill="none" xmlns="http://www.w3.org/2000/svg"><g clip-path="url(#clip0_4_3304)" fill="#EDFFEF"><path d="M82.41 198.255a2.983 2.983 0 01-.45-.211l-2.85-.188c-.214-.408-.378-.718-.48-.976-.395 11.309.666 37.328-16.941 36.444.161.831.336 1.662.458 2.493 17.871-2.402 21.434-23.077 21.331-37.676a1.098 1.098 0 01-1.069.114zM59.414 38.831l.433.657a91.87 91.87 0 00-.433-.657zM17.496 213.782a23.498 23.498 0 01-.813-1.778c-.923-1.798-1.944-3.857-2.83-6.095.797 3.324 2.116 6.438 4.165 8.923a7.17 7.17 0 01-.522-1.05zM118.951 86.48l-.067.235.092-.22-.025-.014zm-85.665 139.9c-.024-.011 0 0 0 0z"/><path d="M91.446 2.551c-.23.416-.528.832-.76 1.239 2.349.684 4.012 1.551 6.073 2.731a41.823 41.823 0 00-6.41-2.138c-1.11 1.908-6.146 1.42-5.613-1.042-17.548-2.26-55.726 1.997-58.909 24.498-.327-1.94 6.052-18.974 6.793-18.027-1.25-1.595-5.165 3.727-5.554 4.68a9.126 9.126 0 000 .003c-2.305 5.54-2.524 10.842-1.819 16.665.12.99 3.077 12.813 3.433 12.276 5.796 12.333 18.793 24.14 30.084 33.814v-.255c1.417-.075 2.222.898 3.2 1.568.72-.401 1.369-.396 1.944.02.475 1.01-1.96.966-2.275.676h-.527c4.843 4.122 12.683 8.925 15.754 14.66 2.428 4.527 1.078 9.278 4.747 13.522a15.184 15.184 0 00-7.574 7.322l1.853.9c.37.632.74 1.265 1.11 1.901-1.033.18-1.666.687-1.64 1.709 2.62 3.18-4.897 7.233-6.285-.208-11.387.756-24.003 4.037-32.985 11.358 1.944.613-.636 1.109-1.158 1.053-1.569 1.457-4.388 3.701-5.276 4.818 1.388-1.779 2.777-3.809 4.46-5.325-.165-.406.122-.667.86-.781 9.818-9.197 21.127-11.231 34.068-11.231a8.299 8.299 0 00-1.37-3.249c-6.692-.045-13.482 1.385-20.028 4.058.114.458.092.939-.064 1.385-.53 1.554-1.591-.255-1.716-.629-16.233 7.228-30.78 22.002-38.364 40.433.803-.277 1.603-.457 2.236-.651 3.332 1.031-1.191 3.837-3.072 2.787a88.678 88.678 0 00-1.55 4.549c.2-.186.5.1.62.277a1.089 1.089 0 01-.708.036c-1.816 6.067-3.133 12.624-2.702 18.99-.522-2.282.08-24.752 1.355-24.173C-.411 160.905.031 180.389 0 180.156c1.536 12.791 7.376 25.653 16.871 34.443-14.474-13.751-14.65-40.92-3.54-56.716-5.941 8.482-7.668 24.57-5.141 35.136-.1-6.649 1.069-15.647 4.007-21.661-1.969 4.016-1.855 12.954-2.166 17.937a2.019 2.019 0 011.927-.437c1.09-6.984 2.966-14.788 5.832-21.287-2.271 5.108-3.98 15.563-4.523 21.755 1.216.833 1.134 1.736-.245 2.709-.375 4.261-.278 9.27.833 13.879.9 2.233 1.908 4.292 2.83 6.095-4.071-10.04-1.966-23.694 2.302-33.158-2.932 6.53-4.185 26.631-1.713 34.275.455.872.877 1.662 1.236 2.379a3.853 3.853 0 01-.495-.667c-2.035-2.494-3.354-5.599-4.165-8.924-1.639-4.064-2.916-8.701-2.647-13.364a2.294 2.294 0 01-1.127-.667c.486 10.751 1.469 18.716 10.65 26.041-8.162-11.295-1.42-34.119 3.99-45.475-4.893 10.336-11.075 40.264-.124 48.943-5.157-10.084-4.1-25.963 1.11-36.033a10.4 10.4 0 01.225-.435c-.077.141-.15.291-.224.435-3.969 8.02-4.13 26.816-1.222 35.354a91.557 91.557 0 005.276 3.452c-8.459-9.07-4.082-32.185-.144-42.834.052-.146.104-.288.158-.424l-.158.424c-3.283 9.117-6.449 39.338 3.416 44.904-6.943-9.079-4.444-25.487-1.197-35.676-2.455 7.69-3.447 28.279 1.45 35.809.186.03 3.668 1.318 1.619.723.908.482 1.807.942 2.699 1.385a10.56 10.56 0 01-2.02-3.74c-.832.457-1.388-1.236-.421-1.612-2.663-11.852-2.294-26.573 1.077-38.408.053-.188.103-.374.156-.554-.053.183-.103.366-.156.554-2.574 9.436-3.752 36.014 2.003 44.078 6.412 3.15 14.305 7.328 21.636 7.203a4.177 4.177 0 01.356-2.803c-1.075-.131-8.634-1.618-8.215-2.696.139-.363 6.901 1.058 8.029 1.144-7.987-7.247-7.557-26.719-3.113-36.019-3.227 6.925-2.594 30.022 3.232 36.014a26 26 0 002.663.061c-2.257-10.96-1.666-25.049 1.77-35.831-.214.667.21 4.241 0 5.704a8.612 8.612 0 012.993.354c1.389-4.075 1.175-12.851.695-16.464.772 5.71 1.291 11.436.833 17.207a6.302 6.302 0 011.944 2.169c.772-2.812.81-5.907 1.666-8.688-1.325 4.397-1.11 12.309-2.222 17.381-1.413 6.441-4.37 11.566-6.998 17.547 3.61-8.192 4.999-17.497 7.498-26.06a4.142 4.142 0 00-2-.241c0 5.263-2.01 10.848-3.074 15.965.997-4.934.475-10.474 1.147-15.527-1.03-.474-1.766-2.494-2.54-3.366-1.331 9.078-2.914 20.794-1.667 29.858 7.087-.177 12.589-9.668 13.566-15.791-.798.141-1.446-.181-1.944-.964-.208-.831 1.836-.523 2.141-.465a175.865 175.865 0 00.786-27.285c-.538.241-1.058.515-1.608.729.556-.214 1.07-.488 1.608-.729-1.141-14.156 1.617-32.801-6.976-45.006a4.79 4.79 0 00-2.058.864c.128 1.503.746 2.59 1.853 3.26-1.111-.67-1.729-1.757-1.853-3.26l-4.68.831a5.371 5.371 0 00.534 4.236c2.06-.297 3.721-.978 5.613-1.84-6.157 2.793-16.316 8.344-19.84 13.483a35.788 35.788 0 019.72-9.662 36.424 36.424 0 00-.98-.122c-.362-.751-.725-1.502-1.142-2.372l3.041-2.404c-4.871 2.878-12.053 5.756-15.338 9.743 4.166-5.081 9.228-9.331 15.677-11.034 0-1.056-.422-5.416 1.077-4.754 1.157.764 1.654 1.873 1.489 3.324 4.04.571 3.855-2.92 6.968-3.695.08.033 2.308 1.629 2.288 1.834l-1.216 1.313a23.474 23.474 0 012.88 5.263c.152-.692 2.744-10.981 5.135-7.43-1.633-2.424-5.024 13.281-3.81 12.312 2.688 13.668 3.332 29.861 2.86 43.834 1.224-1.352 2.797-1.877 4.721-1.576-.392-10.095-1.944-20.464-3.185-29.232-.43.113-.873.263-1.314.401-.722-1.463-.661-3-.53-4.546a7.77 7.77 0 001.49 1.596c-.632-4.582-2.357-11.117-1.127-15.741.9-3.374 3.555-4.679 4.677-7.923-1.858-.682-10.64-6.064-9.056-9.184a15.032 15.032 0 01-.697-2.834c.339.837.75 1.642 1.23 2.408.636-.2 7.673 5.79 10.184 6.067 5.082.554 10.614-1.981 13.675-5.907 7.553-9.696-.095-14.358-4.416-21.76a15.055 15.055 0 00-4.416-1.352c2.697-.359 5.441 0 7.954 1.04a15.431 15.431 0 016.357 4.883 47.865 47.865 0 009.534-9.932 8.288 8.288 0 00-1.903.72c.02-.678.037-1.354.056-2.033-2.677 1.939-5.327 4.211-8.24 5.765 6.621-3.618 12.381-13.262 15.227-20.063l.067-.232a.615.615 0 01-.357-.738.617.617 0 01.699-.431 32.008 32.008 0 011.974-5.264c-.814 1.607-1.252 3.585-1.836 5.297a.762.762 0 00-.138-.04c-.117.386-.231.777-.342 1.17l.025.014-.092.219c-1.269 4.432-2.499 9.197-5.76 13.145.499.467.91 1.018 1.214 1.629 19.496-28.072 14.358-86.633-22.892-98.934zM14.769 165.05c-1.083 1.267-2.156 1.52-3.219.759-.37-1.374.475-2.134 2.536-2.28.672.34.91.845.683 1.521zm59.345 21.821c-.161 3.602 1.874 9.295 1.372 13.96-.556 5.153-2.733 9.186-4.005 14.128 1.058-4.138 1.194-8.61 2.05-12.826 1.027-5.302.341-9.976.583-15.262zm-41.438-52.057c3.477-.964 3.594-.989 4.721.967 9.406-9.308 21.276-10.264 33.56-11.707-10.762 1.285-24.856 5.078-33.085 12.502.255.41.522.815.791 1.239-.783.673-1.388.119-1.857-.244-1.328 1.199-4.002 3.424-4.663 4.28 1.238-1.607 2.455-3.46 3.935-4.854-.925-.781-1.83-1.653-3.402-2.183zm39.191-4.371c-13.133.651-30.138 7.081-37.939 17.303 10.093-13.231 22.02-16.475 37.94-17.303zm-38.602 50.098c-.078 1.06-.155 2.122-.23 3.186l-2.306-.019c.134-1.151.266-2.301.397-3.449l-4.138-.214c-.277-4.014 2.922-3.219 6.035-3.211 2.125-.62 2.125-.62 3.61 1.109-.668 1.603-1.79 2.469-3.368 2.598zm4.518-23.841c-.797-1.183 2.322-.402.833.31a.922.922 0 01-.833-.31zm22.029 61.199zm.1-.142c-.017.048-.031.095-.048.139l-.072-.058a.304.304 0 01.12-.081l.191-.554c.475.397.056.438-.192.543v.011zm1.11-63.459c.24-.942 1.647-2.283 2.589-1.302 1.08 1.108-1.736 1.729-2.589 1.305v-.003zm-5.596 5.795c.217-.277.797-.293 1.022-.365.534.088 4.294.077 3.772 1.46 3.446-2.12 8.506-6.569 11.53-9.381-4.482 4.217-8.767 9.769-13.76 13.434-.172.127 1.422-3.07 1.774-3.582-.669.404-6.212.737-4.338-1.566zm-6.35 28.953a5.352 5.352 0 014.007.18c.136-.748.314-1.488.533-2.216.116-.324.172 2.028.091 2.46 1.08.475 2.228.774 3.402.884 1.644-1.646 2.039-2.158 4.11-.604a15.825 15.825 0 01.203-3.239c.136-.665.417 3.549.422 3.643l.8.197c.022.352.05.703.075 1.055l-.775.058c.056.931-.06 1.87-.03 2.804.625.183 1.25.368 1.886.515-.636-.147-1.261-.332-1.886-.515.32 10.339-1.57 21.198-.233 31.438-1.217-9.234-1.311-17.553-1.111-26.85a1.58 1.58 0 01-.578.554c-.053-.521-.111-1.045-.167-1.568.311.105.578.311.759.584.072-2.233.208-4.668.491-6.895l-1.888.144a28.13 28.13 0 01-.39.44c-1.826.056-3.562-.277-5.276-.725v.038c.086.039.08.056 0 .053-.216 11.109-2.746 22.941.209 33.898-3.094-11.392-3.838-22.346-.964-34.011-1.83-.363-5.932-1.502-3.69-2.322zM46.1 204.13a40.606 40.606 0 011.513-8.269c.014-.047.028-.094.045-.141-.017.047-.03.094-.045.141-.786 2.54-1.172 5.516-1.516 8.28-.914 10.162.733 23.238 7.182 28.341-9.12-7.059-8.629-15.459-7.48-26.016.1-.757.198-1.538.3-2.336zm-.592-19.392c-1.355 7.976-2.221 16.254-1.874 24.343.502.382.966.789 1.497 1.141-.302.438-.603.878-.903 1.319-.136.041-.278.069-.42.105.556 6.283-1.627 16.159 5.96 18.819-7.498-2.247-8.014-13.375-7.906-19.916l-.53-.41-1.62.338c.061 3.352.517 6.607.797 9.937 1.389-.219 1.73.859.142 1.183.877 3.934 3.569 6.682 5.432 10.101-3.45-6.076-7.465-8.777-8.004-16.32-.447-6.269.145-15.126 1.861-21.204-1.014 3.571-.35 11.912-.228 16.303l1.614-.349c.2-.255.375-.465.53-.648-.122-8.355 2.38-17.362 3.65-24.75l.002.008zm29.196-50.816c-.325.042-.65.078-.977.111-13.097 1.626-22.112 10.735-31.765 18.561 10.567-8.546 15.452-16.425 30.946-18.497.277-.02.555-.044.819-.069.314-.036.636-.075.977-.106zM98.27 7.202c.123.052.24.113.353.184-.15-.075-.3-.153-.453-.225l.1.042zm6.835 24.213c-3.31-8.264-14.719-22.384-22.85-27.196 10.544 6.183 18.201 15.597 22.85 27.194v.002zM85.664 7.591l-.089.055.089-.055zm3.788 8.726c.458-.11.808.277 1.067.687 1.732.213 2.39 1.246 1.974 3.1 6.33 7.275 8.981 15.76 13.55 24.019-4.33-7.904-9.656-15.65-14.566-23.21-.695.277-4.147.706-4.566-.296.174-1.28.97-2.194 2.385-2.743-1.313-3.269-6.99-9.031-10.153-9.502 5.18.587 7.08 4.723 10.309 7.945zm12.244 72.735c.678-9.392.112-16.276-1.78-25.401.811 3.911 3.98 8.615 4.224 13.804.256 5.41-1.496 9.616-2.541 14.838.322-1.679-.008-1.549.097-3.241zm-2.593-45.489c-2.025 1.17-2.966-3.108-1.064-4.078 2.131 1.116 2.486 2.475 1.064 4.078zM98.825 60.6c-.62.308-1.555-1.958-.486-2.545.955.157 1.738 1.936.478 2.545h.008zm4.654.624c.014.066.025.13.042.194.017.063.056.202.089.302 0 .016 0 .033.014.05.293.86.782 1.639 1.43 2.277l.086.088c.017.222.036.447.056.668l-.059-.668-.083-.088a5.837 5.837 0 01-1.43-2.277c0-.017 0-.034-.014-.05a4.305 4.305 0 01-.089-.302c-.025-.1-.028-.128-.042-.194-.013-.067-.027-.108-.038-.164.011.067.025.122.038.164zm1.775 28.811l.028.028c-.556 1.267-1.309 1.648-2.261 1.144.011-1.07.767-1.449 2.233-1.158v-.014zm-8.55 3.325c.09-.868 0-2.034.066-2.912.017-.244.03-.482.044-.723-.255-8.638-3.821-20.415-8.54-25.653 6.904 7.701 9.123 15.674 8.54 25.653a27.45 27.45 0 01-.11 3.654v-.02zm-10.57-16.345c-2.37-4.433-6.69-10.118-10.554-12.528C86.167 71.1 90.907 80.334 92.82 92.36c-.755-5.133-4.187-10.829-6.687-15.344zm.513 15.17c-6.315-10.25-13.96-17.833-23.095-25.373 4.06 3.324 10.24 5.748 14.405 10.67 3.819 4.503 5.671 9.713 8.69 14.703zm4.999-40.447c-.874.185-1.425-.106-1.652-.872.055-1.327 4.112-.63 3.84.401a2.07 2.07 0 01-2.169.466l-.019.005zm.666 10.852l-.333.105.059-.33.275.225zm-.985-3.353c-.278 1.86-2.82.49-2.641-1.025.247-1.922 2.627.203 2.66 1.02l-.02.005zm3.493.879l.059-.324.277.218-.336.106zm-3.504-35.264l-.359-.052.242-.25.117.302zm.885 6.175C89.147 23.526 78.038 10.32 70.498 6.15c9.995 5.455 17.338 14.032 21.703 24.877zM60.034 7.538c2.946 1.468 5.037 2.086 7.67 4.252.37-.615.8-.83 1.286-.645-.533-.388-3.224-2.865-3.333-2.928C76.28 14.94 83.97 24.999 88 36.884c.047-2.682 5.668-1.13 5.262 1.468-1.169.599-4.196.136-5.126-1.041.797 2.845 1.988 5.48 3.168 8.191C86.028 33.61 79.363 20.34 69.52 11.596c.227.723.388 1.465.48 2.217 4.325 3.776 8.871 12.577 10.787 17.951-1.666-4.687-8.42-12.32-12.125-16.544-1.619.524-3.005.158-4.299 1.917 6.707 8.397 10.817 15.655 16.183 24.858 1.255-.712 3.666-.584 3.571 1.53-.475.761-3.61 3.93-4.768 2.33-.911-1.45-.564-2.707 1.041-3.771-5.937-7.757-9.72-16.968-16.557-24.102a9.5 9.5 0 00-.186.332c.185.824.364 1.649.539 2.474-2.278-.576-2.278-.576-1.842-2.626-.2-.742-.6-1.485-.722-2.216-1.774-1.405-4.496-3.903-5.862-4.651 2.005 1.108 4.165 2.11 5.943 3.56.134-.36.354-.683.641-.94 1.586.36 3.125-.166 4.688-.207.07-.142.133-.277.203-.43-2.25-2.729-4.077-4.17-7.201-5.74zm-2.805 8.632l-.297-.102.236-.15.06.252zm13.125 19.816C67.96 28.784 56.209 17.21 49.872 12.403c8.323 6.252 16.966 13.004 20.482 23.583zm-8.66-4.598c.207-.12.425-.22.65-.3.247.779.361 1.217.184 1.466 2.405 3.125 4.535 7.04 5.518 10.893 1.83.424 2.996 1.485 4.066 2.983-.964 2.086-2.439-.678-3.414-1.038.87 1.642 1.667 3.324 2.514 4.97-.908-1.812-2.278-3.325-3.241-5.112-.258 0-3.136 1.643-3.866.751s2.063-3.105 2.838-2.845a10.914 10.914 0 00-.63-1.247l-.133-.027c-.336.025-.673 0-1-.075-2.394.066-4.669 1.584-4.76-2.061 1.652-.205 2.935.277 3.735 1.662.32.189.665.331 1.025.424.335-.011.67.014 1 .075h.119c-1.764-3.07-3.763-6.06-5.724-9.007h-.13c.016-.041.039-.075.058-.116-3.766-5.68-8.331-12.957-13.01-17.104 5.326 4.687 10.25 9.757 14.201 15.708zm-2.221 6.39l.974 1.286-.974-1.285zm-.056 1.053l.433.657-.433-.657c-4.06-6.094-12.239-16.203-18.215-21.8-.397-.362-.794-.725-1.197-1.085.387.338.786.7 1.197 1.086 7.023 6.455 12.894 13.674 18.212 21.8h.003zm-4.721 3.79c2.636 4.125 5.254 8.203 7.884 11.954-2.802-3.934-5.357-7.945-7.884-11.954-4.985-7.787-10.014-15.749-15.305-21.993C45.34 27.623 49.967 35.119 54.71 42.62h-.014zm-13.144-4.363a5.948 5.948 0 001.041 1.767l-.702 1.006c3.224 6.35 10.275 15.237 16.515 19.101.225.136.447.277.672.4a19.424 19.424 0 01-.672-.4C48.6 54.251 41.013 44.375 36.381 33.798c.38.872 3.61 4.213 4.635 5.607a7.01 7.01 0 01.6-.945l-.064-.202zm43.776 86.575c-1.666.515-1.741-.986-1.666-2.047l-.19-.022c.884-5.696 6.685.573 1.856 2.069zm1.563-21.182c-.4-.864-.394-.634.317-1.011.505.529.4.864-.317 1.011zm3.15 19.761c.536.554.42.908-.356 1.064-.525-.552-.405-.904.356-1.064zm1.944-20.049a.444.444 0 01-.261-.277c.416-.41.736-.404.952.017a4.89 4.89 0 01-.683.26h-.008zm-9.543-8.571c.392 1.438 1.689 10.965 1.606 11.147-1.383.023-2.255-.786-2.616-2.426-1.056-3.289.786-6.555-.747-9.824-.85-.579-1.861-2.12-1.964-3.122-8.212-11.211-26.277-21.72-38.3-34.352-1.06.17-1.127.092-.813-.87-8.054-8.743-13.1-18.52-9.967-30.24l-.69-.045c-.957-1.812.02-2.933 1.892-3.366a8.808 8.808 0 012.419-3.507 11.322 11.322 0 01-1.083 3.35c.833-.023 1.666.05 2.485.027-.177-.859-.447-1.737-.66-2.593.305 1.191.555 1.563 1.138 2.563.117 0 .233 0 .35-.03.075-1.771 2.85-1.705 2.81.437-.594 1.136-1.465 1.432-2.613.89 2.886 8.235 8.498 13.693 13.053 20.796-4.563-7.081-11.809-10.527-13.63-20.584-.528.702-1.052 1.406-1.572 2.111-.469.396-.91.494-1.322.294 2.34 6.189 3.302 20.44 9.553 23.974-7.76-4.474-9.487-16.486-9.928-24.151l-.047-.022-.62-.04c-4.396 21.468 18.399 38.16 33.07 50.26.728-1.047 1.272-1.087 1.63-.12a1.042 1.042 0 01-.988.654c7.82 6.29 14.141 16.9 24.09 20.146 1.76.576 12.957 1.369 12.924 1.92-.164 2.986-18.107-2.39-19.451-3.277h-.008zm17.324 11.671c3.333-2.806 7.246-7.73 9.037-11.635a294.18 294.18 0 01-3.116.352c-1.347 2.41-2.466 4.878-3.61 7.399 5.402-12.004 8.973-26.684 7.545-39.834-.5-.034-.997-.102-1.488-.203v.059h-.092c-.044 1.072-.741 1.57-1.863 1.684a16.498 16.498 0 011.169-5.239c.029-.084.039-.174.029-.263a.601.601 0 00-.09-.25c2.005-1.584 2.005-1.584 4.363-.22l2.008-.092 1.013 1.74-2.421-.017a30.06 30.06 0 001.244 4.363l-2.466-.853a1.665 1.665 0 00-.761-.554c1.944 10.386.647 22.994-4.571 32.268 1.038-.11 2.08-.224 3.116-.349 4.251-9.275 8.3-19.946 8.553-29.678-.466 16.874-4.388 30.158-17.59 41.322h-.009zm14.8-53.137a36.514 36.514 0 00-.092-.732 20.563 20.563 0 01.203 2.992c-.07.175-.136.352-.203.527l.203-.527c-.039-.762-.036-1.515-.103-2.26h-.008zm-.628 26.37c-.296.975-.944 1.366-1.944 1.172-.844-1.372-.252-2.358 1.778-2.959.055.596.111 1.194.163 1.787h.003zm-1.388-41.962c-2.933-.097-5.985 1.078-8.926 1.333l.064-.094c-.417-7.738 4.949-3.325 8.376-2.266-5.124-10.007-9.015-21.395-17.31-28.482 12.775 10.63 15.999 24.171 22.417 38.998-1.364-3.214-3.188-6.275-4.621-9.489z"/><path d="M121.267 80.062a32.099 32.099 0 00-1.975 5.264.75.75 0 01.139.038c.584-1.726 1.022-3.704 1.836-5.302zM17.496 213.782c.14.365.31.718.508 1.056.067.077.128.157.195.235-.24-.418-.47-.853-.703-1.291zm12.111-32.451l.159-.424c-.054.136-.107.278-.159.424zm-3.916 4.028c.075-.144.148-.294.225-.435-.088.133-.152.285-.225.435zm10.539-.64c.053-.183.104-.366.156-.554-.053.18-.103.365-.155.554z"/><path d="M18.21 215.073c-.067-.077-.128-.158-.195-.235.14.239.306.463.495.667-.359-.709-.78-1.507-1.236-2.379.074.229.152.447.233.656.222.438.453.873.703 1.291z"/><path d="M17.274 213.126c-.185-.37-.379-.744-.58-1.122.248.607.519 1.2.813 1.778-.08-.207-.157-.426-.233-.656zM72.72 196.16c.044-.149.091-.299.144-.449-.05.15-.103.297-.144.449zM94.754 8.225a61.316 61.316 0 00-.834-.687c.284.219.556.457.834.687zM47.659 195.709zM58.406 60.132c.225.139.45.277.672.4-.225-.14-.447-.264-.672-.4zM46.1 204.13c.345-2.77.731-5.74 1.517-8.28-.791 2.7-1.3 5.475-1.516 8.28zm8.61-161.509c2.527 4.009 5.082 8.034 7.884 11.954-2.644-3.75-5.262-7.829-7.884-11.954zM41.199 17.032c-.411-.384-.81-.746-1.197-1.086.403.36.8.723 1.197 1.086zm32.518 117.002c.328-.034.652-.07.977-.112-.33.031-.652.07-.977.112zM65.18 41.832c.327.075.664.1 1 .075a4.654 4.654 0 00-1-.075zm38.444 19.946zm10.95-8.463a10.731 10.731 0 00-.092-.732c.034.244.064.488.092.732zm.122 2.26l-.202.527c.055-.175.122-.352.202-.527zM96.703 93.379a27.4 27.4 0 00.111-3.635c-.014.241-.028.48-.044.723-.067.878.025 2.045-.067 2.912zm6.818-31.95c.025.1.056.202.089.302-.022-.1-.064-.202-.089-.302zm-63.849-6.253c-.02.061-.037.117-.056.172.278.29.539.579.814.87l.208-.033-.966-1.009zm63.768 5.896c0 .055.025.11.039.164a3.666 3.666 0 01-.039-.164zM52.766 191.368c.249.054.501.092.755.113v-.053a6.62 6.62 0 00-.716-.218 1.59 1.59 0 01-.04.158zm19.554-75.079a8.54 8.54 0 00.805-.202 38.621 38.621 0 00-1.275-.149l.47.351zM77.43.399c.016 1.25 6.618 1.903 7.74 2.025a5.82 5.82 0 011.163-1.44.206.206 0 010-.042c-.825-.197-8.92-1.62-8.903-.543zM19.881 132.762c-.866.917-11.602 13.375-10.114 14.256.597.354 12.42-14.256 13.358-15.184 5.749-5.682 13.389-11.6 21.245-14.074a3.39 3.39 0 01.947-1.296 66.408 66.408 0 00-25.436 16.298zm25.889-16.47l.495.831.325-.13c.555-.191 21.64-4.762 21.597-4.269.225-2.568-21.142 3.058-22.417 3.568zm94.84-17.946a54.986 54.986 0 00-5.063 5.422c-1.072 1.296 5.441-3.527 6.782-4.677l-1.647-.573a1.434 1.434 0 00-.072-.172z"/><path d="M187.524 77.275c-5.41-2.338-12.025-2.258-17.657-.795-12.644 3.285-20.154 13.48-29.257 21.852.025.058.047.114.072.17l1.647.575c8.973-7.693 15.641-18.214 27.716-21.608 4.254-1.194 8.976-1.538 13.302-.388 1.37.363 16.311 9.929 15.719 10.4 1.414-1.12-10.589-9.796-11.542-10.206zm-10.831-.978l-.336-.277c.114-.08.223-.219.345-.233.538.364.539.534.002.51h-.011zm-66.532 55.719c-1.147.147.411-2.77.792-3.089.358.779-2.522-16.898-4.549-15.79-1.208.662 3.093 11.818 2.613 14.488-.392.604-1.191 2.086-.78 2.771a15.149 15.149 0 01-3.682 5.481 15.193 15.193 0 01-5.669 3.4c-.628.338-5.382 3.291-6.387 2.217a40.08 40.08 0 001.621 3.679c9.132-1.87 15.397-8.708 20.14-16.786-.952.529-3.202 3.524-4.099 3.629zm94.387 10.902a.4.4 0 00-.155-.089c.054.025.106.055.155.089zm-2.294 5.155c.511-.194 1.003-.377 1.467-.554-.474.177-.963.362-1.467.554zm-23.278-10.051c-3.707.555-7.809 1.552-11.533 1.663 3.685-.1 8.706-.859 14.016-2.045-.815.131-1.642.259-2.483.382zm-4.907 10.636c-2.369.376-4.999 1.05-7.448 1.127a46.479 46.479 0 006.951-.742c.151-.147.317-.276.497-.385zM195.695 90.9c-.928 0-1.856.052-2.778.141a29.66 29.66 0 002.778-.142zm-69.407 33.21c-.203.108-.408.219-.614.324.206-.116.409-.227.614-.324z"/><path d="M204.398 142.829a1.106 1.106 0 01.581.684c.119-.227-.025-.46-.581-.684zm2.033-8.718l.703-.291-.703.291z"/><path d="M191.601 84.337c-24.825-14.248-47.745 14.394-63.444 29.839.033.03.069.058.103.091a2.824 2.824 0 01-.556 1.759c-.202-.277-.402-.554-.605-.831-6.013 5.87-10.773 10.048-13.622 10.067a3.514 3.514 0 01-.422 1.94l.044-.023c1.364-.64 13.147-9.468 13.481-9.313 10.858-11.691 24.875-24.205 39.496-31.222 7.379-3.537 14.164-4.803 21.762-1.83.786.31 13.647 7.911 11.992 9.108-.495.357-3.694-2.71-4.099-3.025h-.042c-.947.097-1.872.133-2.777.141-6.915.66-13.941 3.471-20.634 4.535 2.594-.41 7.379-3.69 11.03-4.291 3.333-.554 6.402-.216 9.604-.244.93-.089 1.858-.139 2.777-.141h.039a36.112 36.112 0 00-12.139-6.22c-7.171.831-17.438 3.99-23.123 8.588.741 1.18.473 2.066-.802 2.657-1.825-.29-1.53-3.338.169-2.992 7.879-5.366 14.047-7.887 23.575-8.31-15.349-4.303-33.148 13.28-43.49 22.439-6.34 5.623-12.516 11.585-17.354 18.577-1.203 1.798-7.035 16.204-5.318 15.772-4.583 1.257 4.579-17.775 6.001-19.525-1.944 1.798-4.191 3.183-6.296 4.745-.25 8.619-14.544 18.561-22.067 19.985 8.104 14.838 24.975 24.678 44.065 27.59-7.604-.277-15.499-2.217-22.437-5.278-.61-.277-19.528-11.956-18.545-12.763-4.68 3.857 26.147 16.758 25.397 16.564 10.253 2.671 20.495 2.61 30.973 2.313 10.223-.291 20.343-.637 29.952-4.59 6.507-2.676 12.416-6.574 17.052-11.896.983-1.127 7.709-10.25 6.131-10.882.681.277-14.224 16.165-14.868 16.636-7.985 5.865-17.11 8.339-26.83 9.375 13.608-2.615 28.363-8.699 35.891-20.952-6.556 3.488-15.385 6.898-22.994 7.203 4.871-.214 17.81-5.156 23.014-7.245 11.261-18.364 10.711-56.425-10.084-68.351zm-22.823 89.204l.606.426c-1.142.579-1.366-.299-.606-.415v-.011zm36.237-29.67c-.3 3.482-20.112 6.648-23.248 6.845 3.105-.188 9.304-3.878 13.256-4.71.438-.091 9.284-1.271 9.95-2.493a1.113 1.113 0 00-.58-.684c.555.224.705.457.58.684.04.115.054.237.042.358zm-28.666 4.673c4.027 1.269-4.388 2.111-2.777.49a46.242 46.242 0 01-6.943.751h-.555.555c2.438-.077 5.079-.751 7.448-1.127a2.82 2.82 0 00-.505.385 90.573 90.573 0 002.68-.516 4.805 4.805 0 00-.514-.124 76.631 76.631 0 003.413-.529c8.404-2.014 17.688-5.281 23.636-8.212.356-.177.709-.351 1.064-.534-.339.177-.697.354-1.064.534-7.776 3.909-15.154 6.71-23.636 8.212-.98.235-1.944.454-2.899.653l.097.017zm-1.111 7.438c-1.65-.554-1.666-.598-.833-1.914.502.515.799 1.196.833 1.914zm-13.272-49.516c.833-.069 1.469.41 2.039 1.086.438.263.869.54 1.288.831a3.48 3.48 0 01-.35 1.781c10.998-5.208 22.931-6.881 33.993-11.4-3.333 1.333-6.357 2.981-9.807 4.131-.033.055-.075.111-.105.169a2.974 2.974 0 01-1.35.424c-3.035 1.46-6.404 2.061-9.6 2.942-1.389.385-13.708 4.205-13.72 4.155-.719.122-.924-1.124-.974-1.554a1.754 1.754 0 00.625-1.476c-.66-.4-1.34-.764-2.039-1.089zm.714 46.386l-.833 1.186c-2.036-2.358.641-2.012.833-1.186zm16.757-40.641c.669.277.861.807.603 1.386-.492 1.069-1.989-.682-.603-1.386zm-13.239 2.851l-.186.155c-.041-.069-.122-.144-.113-.205.008-.061.108-.113.169-.169.039.069.08.125.13.219zm-2.827-2.019c.061-.161 1.844-1.688 1.844-.064a1.465 1.465 0 01-1.819.088l-.413.192.388-.216zm20.115 2.659c5.957-1.784 12.172-2.546 17.918-4.903-11.386 4.709-23.908 9.577-36.364 10.884 4.922-.521 12.903-4.291 18.446-5.981zm4.619 8.07c.78.166.991.607 1.011 1.141 4.984-2.147 10.122-2.493 14.982-5.15-10.814 5.94-23.458 11.181-36.139 11.608 4.113-.133 12.259-3.491 16.805-4.951 1.266-.41 2.499-.781 3.729-1.252-.374-.349-.377-.875-.388-1.396zm2.985-1.418c.239-.139.49-.256.75-.35l.039.037c-.942 1.637-.595.18-.789.313zm-23.647 17.322c3.724-.102 7.826-1.091 11.533-1.662.841-.125 1.668-.256 2.483-.391 8.923-1.997 18.673-5.208 24.322-8.56-8.001 4.776-15.405 7.065-24.322 8.56-5.31 1.195-10.331 1.954-14.016 2.053zm10.767 4.84c-1.533-.388-1.706-.925-.517-1.612 1.576.399 1.748.936.517 1.612zm-3.372-24.163l.022.02-.022-.02zm-8.587 13.04c-.116.033-.277.128-.341.092-.064-.036-.1-.197-.145-.305.284-.205.447-.13.486.213zm15.599 8.103c5.649.131 18.28-4.787 24.581-7.385l.703-.291-.703.291c-7.782 3.255-15.641 7.582-24.581 7.385zm26.436-16.655c-.511.241-1.044.499-1.58.721-7.359 3.296-16.03 6.316-24.233 5.842 5.029.305 17.951-3.767 23.458-5.54.258-.084.517-.183.775-.291a95.343 95.343 0 001.58-.732zm-24.786-2.1c.192.059.2.186.02.38-.103-.044-.259-.069-.278-.139-.02-.069.039-.135.089-.213a35.427 35.427 0 01-3.647.405c5.307-.305 19.818-5.497 25.195-8.106-6.502 3.089-13.964 6.443-21.393 7.673h.014zm19.837-17.572c.232-.127.474-.232.725-.316v-.022h.014-.028c-.83 1.615-.555.228-.725.338h.014zm-2.18.344c.281-.04.559-.095.833-.166l2.794-.942c-.85.304-1.847.703-2.794.942-5.123 1.723-10.622 3.496-16.088 4.391a.112.112 0 01.017.085c-.111.851-2.48 1.543-2.561.535a.421.421 0 01.092-.277c-1.32.15-2.648.233-3.977.249a23.754 23.754 0 004.56-.609c.229-.077.466-.129.706-.155 5.265-1.2 11.742-3.444 16.404-4.053h.014zm-1.544-10.214c-8.284 1.878-16.385 5.302-24.594 7.252 4.999-1.163 10.62-6.225 17.088-6.612 2.671-.161 4.865-.064 7.506-.64zm-27.077 2.676h.017c5.832-2.67 12.025-3.228 18.265-4.156-5.765.854-11.97 3.78-17.616 5.38-.774 1.629-2.641 3.38-4.26 1.743-2.974 1.385-5.882 3.357-8.864 4.635 1.619-.696 6.282-4.289 8.398-5.724.097-1.172 3.257-2.061 4.06-1.875v-.003zm-16.349 3.49c8.392-10.011 19.62-11.743 31.659-13.599-12.658 1.912-22.458 7.743-32.406 15.14-.687-.468-.438-.981.747-1.541zm2.96 7.757c3.152 1.33-3.155 4.244-3.638 4.352-1.933.413.084-5.85 3.638-4.354v.002zm-1.866 24.612c-.078.57-1.666 1.041-1.727.357-.034-.576 1.774-.715 1.727-.36v.003zm-17.313-23.667l1.242.496-.622.618a1.427 1.427 0 01-.65-1.125l.03.011zm8.132 7.917c-1.811.225-2.702.555-3.116-1.554l-3.916-.665c.347-.953 2.963-.243 3.577-.808a6.043 6.043 0 01-.369-2.53c-4.633 2.471-8.887 5.837-13.314 8.757.25.105.339.452.114 1.227-.681.233-1.294.277-1.75-.174a49.65 49.65 0 01-3.055 1.759c-.202.111-.408.222-.613.324.205-.105.411-.216.613-.324a29.59 29.59 0 002.941-1.878 1.686 1.686 0 01-.18-.277 7.538 7.538 0 011.444-.662c4.285-3.253 8.709-7.405 14.013-9.588 1.111-3.688 4.569-3.602 6.255-.277.23-.377.488-.743.724-1.109 2.664.372.475 3.001-.113 3.555-.917-.643-1.203-.87-1.128-1.286-6.757 1.532 2.855 4.541 2.811 4.236.152 1.05-3.983 1.15-4.233 1.18.092.239.183.474.278.712l-.278-.712-.35.042c-7.481 6.818-18.607 7.965-26.841 11.452 8.382-3.524 18.91-6.551 26.497-11.4h-.011zm-12.011 4.552v.261c.011-.089.011-.172.011-.261h-.011zm4.676-5.782c0-.044.356-.083.389-.085.265.522.154.777-.333.764a4.28 4.28 0 01-.045-.679h-.011zm2.994.33a.627.627 0 01.397-.307c.714.676-.525.861-.397.307zm6.693 1.499a1.395 1.395 0 00-.928-.13c.314-.07.642-.029.928.116v.014zm-8.565 10.25l-1.266-.208c-.242-1.906 1.158-.46 1.266.186v.022zm-6.298-1.956a.817.817 0 00-.07 0c-.297.466-4.06 3.856-3.713 1.092.103-.809 3.241-1.108 3.713-1.092a.296.296 0 00.028-.044l.042.044zm18.773-.471c-11.464 3.704-23.158 5.638-34.22 8.048 11.331-2.493 23.251-4.538 34.22-8.07v.022zm-.961 9.599c-.064.978-1.583-.086-.483-.642a.638.638 0 01.35.226.64.64 0 01.133.394v.022zm-33.586 7.261l.033-.086a1.422 1.422 0 00-.097.721.678.678 0 01.064-.635zm24.041 24.282c-1.203-.443-1.691-1.372-1.463-2.787.058-.277.763-4.191 1.252-5.144-2.091-.092-4.21-.499-6.29-.734 4.688-1.463-8.02 2.562-3.949-.524-8.137-.801-16.605-4.987-23.92-8.441-.325.382-.147.992.461 2.122-.191 1.022-.744 1.983-.924 3.006 9.894 8.311 24.605 15.649 37.713 15.815-15.363-.277-25.919-4.861-37.713-14.619 0 .034 0 .061.013.095a8.377 8.377 0 00-.924 0 4.895 4.895 0 00-2.161-2.906 19.597 19.597 0 01-2.411-2.544c-.138-.182 1.881 1.147 2.283 1.544.278-3.879-1.902-5.264-6.19-4.682v-.878c1.836.295 3.697.402 5.554.318l-1.111-1.44c-.186-.358 1.828 1.227 2.072 1.421 2.169-.042 4.349.124 6.524.188l1.072.646-.114 1.662-.833.111a2.719 2.719 0 00-2.197-.366c5.721 2.637 11.803 4.781 18.01 6.025.944-.908 2.096-1.199 3.455-.872-.2.484-.429.956-.686 1.413 2.235.484 4.182 1.351 6.44 1.221.755-.058 1.177.191 1.272.754 1.566.374 3.31 1.005 4.924 1.108.969-1.033 3.332-.443 4.382.13-1.372.042 1.597-.039 2.172-.019a15.51 15.51 0 00-2.033.113c.622.485-4.521 8.289-4.68 8.264zm-6.698-15.034a.6.6 0 01.191.21c-.924 1.499-2.413-1.053-.191-.21zm-.586-.626l.366-.023-.152.291-.214-.268zm9.442 2.728c-.944.172-1.572-.277-1.891-1.321-.12-1.953 3.591.46 1.902 1.321h-.011zm3.005-6.227l.278.235c0 .554.006 1.117.019 1.69-3.113.114-5.235 2.66-6.551-.831.105-.286.266-.548.475-.77a65.552 65.552 0 01-17.496-1.457 60.393 60.393 0 00-3.23 1.59v-2.216c-3.949-1.056-8.332-1.624-12.086-3.275 2.171.956 9.348 2.08 12.391 2.31l.303-.864c.408.072 3.055.258 3.177 1.399 2 .382 4.149.352 6.179.574.486-.879 2.255-.596 1.625.088 3.763.036 7.445.554 11.192.712a7.13 7.13 0 001.216-.554 4.642 4.642 0 011.767.831c2.271.094 4.601-.662 6.834-.944-2.091.229-3.996 1.221-6.093 1.482zm-10.845-3.602c.067-1.014 3.072-1.49 3.522-.59.45.901-3.575 1.396-3.522.59zm17.496-2.089c-.222-.024-.255-.119-.111-.277.214.017.239.111.103.269l.008.008zm-13.227-1.723c-.278.704-1.564.948-1.633.078-5.916.366-13.25.809-19.276 0 10.017 1.271 26.755-1.676 36.841-3.602-5.335 1.034-10.381 3.159-15.941 3.516l.009.008zm18.437-29.745a2.075 2.075 0 01-1.916.602 6.409 6.409 0 011.908-.61l.008.008zm-1.03 8.669c-.461-2.313-.194 2.463 0 0zm5.157 49.173c.63-.395.963-.235 1 .482-.811.205-.686.396-1.008-.491l.008.009zm13.886-5.513c6.076-1.939 13.905-2.823 18.551-7.339-8.512 8.491-26.622 12.597-38.477 13.073 5.374-.224 14.072-3.947 19.931-5.742l-.005.008zm-18.438-3.981c9.998 1.831 30.888-7.48 41.794-11.597.494-.184.983-.369 1.466-.554-.464.169-.955.352-1.466.554-12.32 4.718-28.341 14.232-41.788 11.589l-.006.008z"/><path d="M175.744 148.394c.173.033.345.074.513.125.95-.199 1.919-.418 2.9-.654a73.82 73.82 0 01-3.413.529zm-54.219-7.249zm14.58-18.248v-.261a2.273 2.273 0 000 .261zm70.587 2.665c.536-.222 1.069-.48 1.58-.721-.518.242-1.045.482-1.58.721zm-4.713-20.215c.947-.239 1.944-.638 2.794-.942l-2.794.942zm-37.974 2.205c-.556-.676-1.206-1.155-2.039-1.086.699.326 1.38.691 2.039 1.091v-.005zm38.788 32.102a43.8 43.8 0 001.064-.535c-.356.183-.709.358-1.064.535zm-72.3-18.367c-.422.321-.843.632-1.264.931.034.041.07.081.109.119.555-.344 1.1-.694 1.635-1.053a.787.787 0 00-.48.003zm52.816 1.482l.177-.027a.523.523 0 00-.141-.031.313.313 0 01-.036.058zm1.419-13.209c-.239.056-.472.106-.706.155a1.236 1.236 0 00-.583.361 48.104 48.104 0 002.452-.338c-.1-.183-.619-.241-1.163-.178zm-83.67 1.183c.427-.277 2.138 16.273 1.83 17.065-1.233 3.413-4.216 5.94-7.326 7.536-.597.307-12.4 2.493-12.353 2.266-.622 3.019 15.769-2.962 17.674-4.987 3.813-4.031 5.062-8.826 3.921-14.278-.2-.945-2.683-8.269-3.746-7.602z"/></g><defs><clipPath id="clip0_4_3304"><path fill="#fff" d="M0 0h209v236H0z"/></clipPath></defs></svg>