<svg width="22" height="22" fill="none" xmlns="http://www.w3.org/2000/svg"><g clip-path="url(#clip0_82_1603)"><circle cx="11" cy="11" r="11" fill="#78C081"/><path d="M18.778 3.222A10.928 10.928 0 0011 0C8.062 0 5.3 1.144 3.222 3.222A10.928 10.928 0 000 11c0 2.938 1.144 5.7 3.222 7.778A10.928 10.928 0 0011 22c2.938 0 5.7-1.144 7.778-3.222A10.928 10.928 0 0022 11c0-2.938-1.144-5.7-3.222-7.778zm-.486 15.07A10.245 10.245 0 0111 21.312a10.245 10.245 0 01-7.292-3.02A10.245 10.245 0 01.688 11c0-2.755 1.072-5.344 3.02-7.292A10.245 10.245 0 0111 .688c2.755 0 5.344 1.072 7.292 3.02A10.245 10.245 0 0121.312 11c0 2.755-1.072 5.344-3.02 7.292z" fill="#577A5B"/><path d="M17.482 4.518A9.107 9.107 0 0011 1.833c-2.449 0-4.75.954-6.482 2.685A9.107 9.107 0 001.833 11a9.11 9.11 0 002.685 6.482A9.107 9.107 0 0011 20.167a9.11 9.11 0 006.482-2.685A9.107 9.107 0 0020.167 11c0-2.449-.954-4.75-2.685-6.482zm-.405 12.559A8.537 8.537 0 0111 19.594a8.537 8.537 0 01-6.077-2.517A8.537 8.537 0 012.406 11c0-2.296.894-4.454 2.517-6.077A8.537 8.537 0 0111 2.406a8.54 8.54 0 016.077 2.517A8.537 8.537 0 0119.594 11a8.537 8.537 0 01-2.517 6.077z" fill="#577A5B"/><path d="M11 5.013a.315.315 0 00.315-.315v-.945a.315.315 0 00-.63 0v.945c0 .174.14.315.315.315zm-.315 12.289v.945a.315.315 0 00.63 0v-.945a.315.315 0 10-.63 0zM5.013 11a.315.315 0 00-.315-.315h-.945a.315.315 0 000 .63h.945A.315.315 0 005.013 11zm11.974 0c0 .174.141.315.315.315h.945a.315.315 0 000-.63h-.945a.315.315 0 00-.315.315zM8.122 5.385l-.473-.819a.315.315 0 00-.546.315l.473.819a.315.315 0 10.546-.315zM14.424 16.3a.315.315 0 00-.546.315l.473.819a.315.315 0 10.546-.315l-.473-.819zm-9.7-1.361a.314.314 0 00.157-.042l.819-.473a.315.315 0 10-.315-.546l-.819.473a.315.315 0 00.158.588zm11.734-6.775a.314.314 0 00.157-.042l.819-.473a.315.315 0 00-.315-.545l-.819.472a.315.315 0 00.158.588zM14.781 4.45a.315.315 0 00-.43.116l-.473.819a.315.315 0 10.546.315l.473-.819a.315.315 0 00-.116-.43zM8.006 16.185a.315.315 0 00-.43.115l-.473.819a.315.315 0 10.546.315l.473-.819a.315.315 0 00-.116-.43zm8.294-1.761l.819.473a.313.313 0 00.43-.116.315.315 0 00-.115-.43l-.819-.473a.315.315 0 00-.315.546zM5.7 7.576l-.819-.473a.315.315 0 10-.315.546l.819.473a.313.313 0 00.43-.116.315.315 0 00-.115-.43zm7.494 7.538a.315.315 0 00.273-.473l-1.749-3.027a.947.947 0 00-.403-1.505v-4.15a.315.315 0 00-.63 0v4.15a.946.946 0 00.488 1.82l1.747 3.028a.315.315 0 00.274.157zM10.684 11a.315.315 0 11.632 0 .315.315 0 01-.631 0z" fill="#577A5B"/></g><defs><clipPath id="clip0_82_1603"><path fill="#fff" d="M0 0h22v22H0z"/></clipPath></defs></svg>