<svg width="33" height="33" fill="none" xmlns="http://www.w3.org/2000/svg"><path fill-rule="evenodd" clip-rule="evenodd" d="M2.568 13.658a49.597 49.597 0 00-.41-1.113 87.798 87.798 0 01-.465-1.262 18.59 18.59 0 01-.33-1.079 9.808 9.808 0 01-.283-1.307A8.778 8.778 0 011 7.704C1 6.31 1.386 4.9 2.159 3.477c.849-1.53 1.652-2.454 2.41-2.772.378-.167.897-.326 1.556-.478C6.784.076 7.318 0 7.727 0c.212 0 .371.023.477.068.273.091.675.667 1.205 1.727.167.288.394.697.681 1.227.288.53.553 1.012.796 1.444.243.432.477.837.704 1.215.046.061.178.25.398.569.22.318.383.587.489.807.106.22.159.435.159.647 0 .303-.216.682-.648 1.136a10.9 10.9 0 01-1.409 1.25c-.507.379-.977.78-1.409 1.204-.432.425-.647.773-.647 1.046 0 .136.037.307.113.511.076.205.14.36.193.466.053.106.16.288.318.546.16.257.247.401.262.431 1.151 2.076 2.47 3.856 3.954 5.341 1.485 1.485 3.265 2.803 5.341 3.955.03.015.174.102.432.261.258.16.44.266.545.32.107.051.262.116.466.192.205.075.375.113.512.113.272 0 .621-.215 1.045-.648a13.7 13.7 0 001.204-1.409c.38-.508.796-.977 1.25-1.409.455-.431.833-.648 1.136-.648.212 0 .428.054.648.16.22.106.488.269.807.488.318.22.508.353.568.398.378.227.784.462 1.216.704.432.243.913.508 1.443.796.53.288.94.515 1.227.682 1.06.53 1.637.931 1.727 1.204.046.107.069.266.068.479 0 .409-.075.943-.227 1.602-.152.66-.31 1.178-.478 1.556-.318.759-1.242 1.562-2.772 2.41-1.424.772-2.833 1.16-4.227 1.16a8.94 8.94 0 01-1.193-.08 9.881 9.881 0 01-1.307-.285 18.625 18.625 0 01-1.08-.33 93.361 93.361 0 01-1.26-.466 44.34 44.34 0 00-1.114-.409c-1.485-.53-2.81-1.16-3.977-1.886-1.94-1.197-3.944-2.83-6.012-4.898-2.068-2.068-3.7-4.072-4.897-6.012-.727-1.166-1.356-2.492-1.886-3.977z" fill="#577A5B"/><path d="M31.93 25.794c-.09-.273-.666-.674-1.727-1.204a52.534 52.534 0 00-1.227-.682 113.85 113.85 0 01-1.443-.796 48.057 48.057 0 01-1.216-.704c-.06-.045-.25-.178-.568-.398a6.398 6.398 0 00-.807-.489 1.488 1.488 0 00-.648-.159c-.303 0-.681.217-1.136.648-.454.432-.87.901-1.25 1.41a13.7 13.7 0 01-1.204 1.408c-.424.433-.773.648-1.045.648-.137 0-.307-.038-.512-.113a5.315 5.315 0 01-.466-.193 8.514 8.514 0 01-.545-.319 13.327 13.327 0 00-.432-.261c-2.076-1.152-3.856-2.47-5.34-3.954-1.485-1.486-2.804-3.266-3.955-5.342-.015-.03-.103-.174-.262-.431a8.219 8.219 0 01-.318-.546 4.934 4.934 0 01-.193-.466 1.538 1.538 0 01-.113-.511c0-.273.215-.621.647-1.046a13.68 13.68 0 011.41-1.204c.507-.378.976-.795 1.408-1.25.432-.454.648-.833.648-1.136 0-.212-.053-.428-.159-.647a6.313 6.313 0 00-.489-.807 29.77 29.77 0 00-.398-.569 50.1 50.1 0 01-.704-1.215c-.243-.432-.508-.913-.796-1.444-.287-.53-.514-.939-.681-1.227-.53-1.06-.932-1.636-1.205-1.727C7.098 1.023 6.94 1 6.727 1c-.409 0-.943.076-1.602.227-.66.152-1.178.31-1.557.478-.757.318-1.56 1.242-2.409 2.772C.386 5.9 0 7.31 0 8.704c0 .409.027.806.08 1.193.053.386.147.822.284 1.307.136.485.246.845.33 1.08.082.234.238.654.465 1.26.227.607.363.978.409 1.114.53 1.485 1.159 2.81 1.886 3.977 1.197 1.94 2.83 3.944 4.897 6.012 2.068 2.068 4.072 3.7 6.012 4.898 1.166.727 2.492 1.355 3.977 1.886.136.045.508.181 1.113.41.606.227 1.027.382 1.262.465.234.084.595.194 1.079.33.485.137.92.231 1.307.285.387.052.784.08 1.193.08 1.394 0 2.803-.387 4.227-1.16 1.53-.848 2.454-1.651 2.772-2.41.168-.378.326-.897.478-1.556.152-.66.227-1.193.227-1.602 0-.213-.022-.372-.068-.479z" fill="#78C081"/></svg>