<svg width="20" height="20" fill="none" xmlns="http://www.w3.org/2000/svg"><g clip-path="url(#clip0_86_1804)" fill="#78C081"><path d="M19.826 14.552l-2.05-1.025-1.304-3.394a.31.31 0 00-.175-.178L8.202 6.719a.312.312 0 00-.336.068l-1.08 1.08a.312.312 0 00-.067.335l3.236 8.095a.311.311 0 00.178.175l3.394 1.304 1.025 2.05a.312.312 0 00.23.174.261.261 0 00.05 0 .313.313 0 00.22-.092l4.856-4.857a.313.313 0 00.092-.27.313.313 0 00-.174-.23zM7.373 8.16l.174-.172 4.03 4.03a1.839 1.839 0 10.442-.443l-4.03-4.03.172-.173 7.777 3.111 1.226 3.19-3.489 3.49-3.19-1.227L7.373 8.16zm5.705 3.703a1.214 1.214 0 11-.003 2.428 1.214 1.214 0 01.003-2.428zm1.84 7.295l-.782-1.562 3.458-3.458 1.562.781-4.239 4.24z"/><path d="M5.977 16.719a.322.322 0 00-.443 0l-.397.397a8.58 8.58 0 01-.156-9.96 1.603 1.603 0 002.181-2.17 8.58 8.58 0 019.96.156l-.403.392a.312.312 0 000 .443l1.378 1.367a.312.312 0 00.44 0l1.37-1.37a.311.311 0 000-.443l-1.37-1.37a.313.313 0 00-.44 0l-.53.526a9.205 9.205 0 00-9.234-1.073l1.801-1.797a.958.958 0 10-.447-.442L6.647 4.42A1.605 1.605 0 004.42 6.647l-3.045 3.04a.96.96 0 10.442.443L3.62 8.333a9.205 9.205 0 001.068 9.234l-.528.53a.313.313 0 000 .44l1.37 1.37a.313.313 0 00.443 0l1.372-1.37a.313.313 0 000-.44l-1.367-1.378zM18.32 4.82l.928.928-.928.929-.928-.929.928-.928zM10.312.723a.333.333 0 11.473.469.333.333 0 01-.473-.469zm-5.25 4.34a.976.976 0 011.653.501.98.98 0 11-1.653-.502zM1.194 10.78a.333.333 0 01-.469-.469.334.334 0 01.54.108.331.331 0 01-.071.361zm4.56 8.458l-.927-.928.928-.928.928.928-.928.928z"/></g><defs><clipPath id="clip0_86_1804"><path fill="#fff" d="M0 0h20v20H0z"/></clipPath></defs></svg>